<mxfile host="Electron" modified="2024-10-04T14:20:45.670Z" agent="Mozilla/5.0 (Windows NT 10.0; Win64; x64) AppleWebKit/537.36 (KHTML, like Gecko) draw.io/24.6.1 Chrome/124.0.6367.207 Electron/30.0.6 Safari/537.36" etag="lerQvFqE4eWs6c-MjCHy" version="24.6.1" type="device">
  <diagram id="C5RBs43oDa-KdzZeNtuy" name="Page-1">
    <mxGraphModel dx="794" dy="511" grid="1" gridSize="10" guides="1" tooltips="1" connect="1" arrows="1" fold="1" page="1" pageScale="1" pageWidth="827" pageHeight="1169" math="0" shadow="0">
      <root>
        <mxCell id="WIyWlLk6GJQsqaUBKTNV-0" />
        <mxCell id="WIyWlLk6GJQsqaUBKTNV-1" parent="WIyWlLk6GJQsqaUBKTNV-0" />
        <mxCell id="TgimvY6QoQQvBlHmrJj4-35" style="edgeStyle=orthogonalEdgeStyle;rounded=0;orthogonalLoop=1;jettySize=auto;html=1;exitX=1;exitY=0.5;exitDx=0;exitDy=0;exitPerimeter=0;entryX=0;entryY=0.5;entryDx=0;entryDy=0;" edge="1" parent="WIyWlLk6GJQsqaUBKTNV-1" source="TgimvY6QoQQvBlHmrJj4-1" target="TgimvY6QoQQvBlHmrJj4-3">
          <mxGeometry relative="1" as="geometry" />
        </mxCell>
        <mxCell id="TgimvY6QoQQvBlHmrJj4-1" value="START" style="strokeWidth=2;html=1;shape=mxgraph.flowchart.terminator;whiteSpace=wrap;" vertex="1" parent="WIyWlLk6GJQsqaUBKTNV-1">
          <mxGeometry x="160" y="50" width="60" height="40" as="geometry" />
        </mxCell>
        <mxCell id="TgimvY6QoQQvBlHmrJj4-3" value="INPUT&amp;nbsp;&lt;div&gt;NOMINAL&lt;/div&gt;&lt;div&gt;BELANJA&lt;/div&gt;" style="shape=parallelogram;html=1;strokeWidth=2;perimeter=parallelogramPerimeter;whiteSpace=wrap;rounded=1;arcSize=12;size=0.15000000000000002;" vertex="1" parent="WIyWlLk6GJQsqaUBKTNV-1">
          <mxGeometry x="250" y="40" width="100" height="60" as="geometry" />
        </mxCell>
        <mxCell id="TgimvY6QoQQvBlHmrJj4-17" style="edgeStyle=orthogonalEdgeStyle;rounded=0;orthogonalLoop=1;jettySize=auto;html=1;exitX=0;exitY=0.5;exitDx=0;exitDy=0;exitPerimeter=0;entryX=1;entryY=0.5;entryDx=0;entryDy=0;" edge="1" parent="WIyWlLk6GJQsqaUBKTNV-1" source="TgimvY6QoQQvBlHmrJj4-4" target="TgimvY6QoQQvBlHmrJj4-16">
          <mxGeometry relative="1" as="geometry" />
        </mxCell>
        <mxCell id="TgimvY6QoQQvBlHmrJj4-19" style="edgeStyle=orthogonalEdgeStyle;rounded=0;orthogonalLoop=1;jettySize=auto;html=1;exitX=1;exitY=0.5;exitDx=0;exitDy=0;exitPerimeter=0;entryX=0;entryY=0.5;entryDx=0;entryDy=0;" edge="1" parent="WIyWlLk6GJQsqaUBKTNV-1" source="TgimvY6QoQQvBlHmrJj4-4" target="TgimvY6QoQQvBlHmrJj4-18">
          <mxGeometry relative="1" as="geometry" />
        </mxCell>
        <mxCell id="TgimvY6QoQQvBlHmrJj4-23" style="edgeStyle=orthogonalEdgeStyle;rounded=0;orthogonalLoop=1;jettySize=auto;html=1;exitX=1;exitY=0.5;exitDx=0;exitDy=0;exitPerimeter=0;entryX=0;entryY=0.5;entryDx=0;entryDy=0;" edge="1" parent="WIyWlLk6GJQsqaUBKTNV-1" source="TgimvY6QoQQvBlHmrJj4-4" target="TgimvY6QoQQvBlHmrJj4-21">
          <mxGeometry relative="1" as="geometry" />
        </mxCell>
        <mxCell id="TgimvY6QoQQvBlHmrJj4-24" style="edgeStyle=orthogonalEdgeStyle;rounded=0;orthogonalLoop=1;jettySize=auto;html=1;exitX=1;exitY=0.5;exitDx=0;exitDy=0;exitPerimeter=0;entryX=0;entryY=0.5;entryDx=0;entryDy=0;" edge="1" parent="WIyWlLk6GJQsqaUBKTNV-1" source="TgimvY6QoQQvBlHmrJj4-4" target="TgimvY6QoQQvBlHmrJj4-22">
          <mxGeometry relative="1" as="geometry" />
        </mxCell>
        <mxCell id="TgimvY6QoQQvBlHmrJj4-4" value="MEMBER" style="strokeWidth=2;html=1;shape=mxgraph.flowchart.decision;whiteSpace=wrap;" vertex="1" parent="WIyWlLk6GJQsqaUBKTNV-1">
          <mxGeometry x="255" y="130" width="90" height="90" as="geometry" />
        </mxCell>
        <mxCell id="TgimvY6QoQQvBlHmrJj4-7" style="edgeStyle=orthogonalEdgeStyle;rounded=0;orthogonalLoop=1;jettySize=auto;html=1;exitX=0.5;exitY=1;exitDx=0;exitDy=0;entryX=0.5;entryY=0;entryDx=0;entryDy=0;entryPerimeter=0;" edge="1" parent="WIyWlLk6GJQsqaUBKTNV-1" source="TgimvY6QoQQvBlHmrJj4-3" target="TgimvY6QoQQvBlHmrJj4-4">
          <mxGeometry relative="1" as="geometry" />
        </mxCell>
        <mxCell id="TgimvY6QoQQvBlHmrJj4-26" style="edgeStyle=orthogonalEdgeStyle;rounded=0;orthogonalLoop=1;jettySize=auto;html=1;exitX=0;exitY=0.5;exitDx=0;exitDy=0;entryX=0;entryY=1;entryDx=0;entryDy=0;" edge="1" parent="WIyWlLk6GJQsqaUBKTNV-1" source="TgimvY6QoQQvBlHmrJj4-10" target="TgimvY6QoQQvBlHmrJj4-25">
          <mxGeometry relative="1" as="geometry" />
        </mxCell>
        <mxCell id="TgimvY6QoQQvBlHmrJj4-10" value="PEMBELIAN&amp;nbsp;&lt;div&gt;&amp;lt; 500000&lt;/div&gt;&lt;div&gt;TIDAK DAPAT&lt;/div&gt;&lt;div&gt;DISKON&lt;/div&gt;" style="rounded=1;whiteSpace=wrap;html=1;absoluteArcSize=1;arcSize=14;strokeWidth=2;" vertex="1" parent="WIyWlLk6GJQsqaUBKTNV-1">
          <mxGeometry x="80" y="135" width="90" height="80" as="geometry" />
        </mxCell>
        <mxCell id="TgimvY6QoQQvBlHmrJj4-12" style="edgeStyle=orthogonalEdgeStyle;rounded=0;orthogonalLoop=1;jettySize=auto;html=1;exitX=0;exitY=0.5;exitDx=0;exitDy=0;exitPerimeter=0;entryX=1;entryY=0.5;entryDx=0;entryDy=0;" edge="1" parent="WIyWlLk6GJQsqaUBKTNV-1" source="TgimvY6QoQQvBlHmrJj4-4" target="TgimvY6QoQQvBlHmrJj4-10">
          <mxGeometry relative="1" as="geometry" />
        </mxCell>
        <mxCell id="TgimvY6QoQQvBlHmrJj4-15" value="BUKAN" style="text;html=1;align=center;verticalAlign=middle;resizable=0;points=[];autosize=1;strokeColor=none;fillColor=none;" vertex="1" parent="WIyWlLk6GJQsqaUBKTNV-1">
          <mxGeometry x="195" y="150" width="60" height="30" as="geometry" />
        </mxCell>
        <mxCell id="TgimvY6QoQQvBlHmrJj4-27" style="edgeStyle=orthogonalEdgeStyle;rounded=0;orthogonalLoop=1;jettySize=auto;html=1;exitX=0.5;exitY=1;exitDx=0;exitDy=0;entryX=0;entryY=0.5;entryDx=0;entryDy=0;" edge="1" parent="WIyWlLk6GJQsqaUBKTNV-1" source="TgimvY6QoQQvBlHmrJj4-16" target="TgimvY6QoQQvBlHmrJj4-25">
          <mxGeometry relative="1" as="geometry" />
        </mxCell>
        <mxCell id="TgimvY6QoQQvBlHmrJj4-16" value="PEMBELIAN&amp;nbsp;&lt;div&gt;&amp;gt;= 500000&amp;nbsp; &amp;nbsp;&lt;span style=&quot;background-color: initial;&quot;&gt;DAPAT&amp;nbsp;&lt;/span&gt;&lt;span style=&quot;background-color: initial;&quot;&gt;DISKON&lt;/span&gt;&lt;/div&gt;&lt;div&gt;&lt;span style=&quot;background-color: initial;&quot;&gt;10%&lt;/span&gt;&lt;/div&gt;" style="rounded=1;whiteSpace=wrap;html=1;absoluteArcSize=1;arcSize=14;strokeWidth=2;" vertex="1" parent="WIyWlLk6GJQsqaUBKTNV-1">
          <mxGeometry x="110" y="230" width="100" height="80" as="geometry" />
        </mxCell>
        <mxCell id="TgimvY6QoQQvBlHmrJj4-18" value="PEMBELIAN&amp;nbsp;&lt;div&gt;&amp;gt;= 500000&lt;/div&gt;&lt;div&gt;DAPAT&amp;nbsp;&lt;span style=&quot;background-color: initial;&quot;&gt;DISKON&lt;/span&gt;&lt;/div&gt;&lt;div&gt;&lt;span style=&quot;background-color: initial;&quot;&gt;20%&lt;/span&gt;&lt;/div&gt;" style="rounded=1;whiteSpace=wrap;html=1;absoluteArcSize=1;arcSize=14;strokeWidth=2;" vertex="1" parent="WIyWlLk6GJQsqaUBKTNV-1">
          <mxGeometry x="390" y="135" width="100" height="80" as="geometry" />
        </mxCell>
        <mxCell id="TgimvY6QoQQvBlHmrJj4-20" value="IYA" style="text;html=1;align=center;verticalAlign=middle;resizable=0;points=[];autosize=1;strokeColor=none;fillColor=none;" vertex="1" parent="WIyWlLk6GJQsqaUBKTNV-1">
          <mxGeometry x="345" y="150" width="40" height="30" as="geometry" />
        </mxCell>
        <mxCell id="TgimvY6QoQQvBlHmrJj4-29" style="edgeStyle=orthogonalEdgeStyle;rounded=0;orthogonalLoop=1;jettySize=auto;html=1;exitX=1;exitY=0.5;exitDx=0;exitDy=0;entryX=0.75;entryY=1;entryDx=0;entryDy=0;" edge="1" parent="WIyWlLk6GJQsqaUBKTNV-1" source="TgimvY6QoQQvBlHmrJj4-21" target="TgimvY6QoQQvBlHmrJj4-25">
          <mxGeometry relative="1" as="geometry" />
        </mxCell>
        <mxCell id="TgimvY6QoQQvBlHmrJj4-21" value="PEMBELIAN&amp;nbsp;&lt;div&gt;&amp;gt;= 300000&lt;/div&gt;&lt;div&gt;DAPAT&amp;nbsp;&lt;span style=&quot;background-color: initial;&quot;&gt;DISKON&lt;/span&gt;&lt;/div&gt;&lt;div&gt;&lt;span style=&quot;background-color: initial;&quot;&gt;15%&lt;/span&gt;&lt;/div&gt;" style="rounded=1;whiteSpace=wrap;html=1;absoluteArcSize=1;arcSize=14;strokeWidth=2;" vertex="1" parent="WIyWlLk6GJQsqaUBKTNV-1">
          <mxGeometry x="390" y="230" width="100" height="80" as="geometry" />
        </mxCell>
        <mxCell id="TgimvY6QoQQvBlHmrJj4-30" style="edgeStyle=orthogonalEdgeStyle;rounded=0;orthogonalLoop=1;jettySize=auto;html=1;exitX=0.5;exitY=1;exitDx=0;exitDy=0;entryX=1;entryY=0.5;entryDx=0;entryDy=0;" edge="1" parent="WIyWlLk6GJQsqaUBKTNV-1" source="TgimvY6QoQQvBlHmrJj4-22" target="TgimvY6QoQQvBlHmrJj4-25">
          <mxGeometry relative="1" as="geometry" />
        </mxCell>
        <mxCell id="TgimvY6QoQQvBlHmrJj4-22" value="PEMBELIAN&amp;nbsp;&lt;div&gt;&amp;lt;= 300000&lt;/div&gt;&lt;div&gt;DAPAT&amp;nbsp;&lt;span style=&quot;background-color: initial;&quot;&gt;DISKON&lt;/span&gt;&lt;/div&gt;&lt;div&gt;MEMBER 10%&lt;/div&gt;" style="rounded=1;whiteSpace=wrap;html=1;absoluteArcSize=1;arcSize=14;strokeWidth=2;" vertex="1" parent="WIyWlLk6GJQsqaUBKTNV-1">
          <mxGeometry x="390" y="330" width="100" height="80" as="geometry" />
        </mxCell>
        <mxCell id="TgimvY6QoQQvBlHmrJj4-25" value="TOTAL" style="shape=parallelogram;html=1;strokeWidth=2;perimeter=parallelogramPerimeter;whiteSpace=wrap;rounded=1;arcSize=12;size=0.23;" vertex="1" parent="WIyWlLk6GJQsqaUBKTNV-1">
          <mxGeometry x="245" y="410" width="100" height="60" as="geometry" />
        </mxCell>
        <mxCell id="TgimvY6QoQQvBlHmrJj4-32" style="edgeStyle=orthogonalEdgeStyle;rounded=0;orthogonalLoop=1;jettySize=auto;html=1;exitX=1;exitY=0.5;exitDx=0;exitDy=0;entryX=1;entryY=1;entryDx=0;entryDy=0;" edge="1" parent="WIyWlLk6GJQsqaUBKTNV-1" source="TgimvY6QoQQvBlHmrJj4-18" target="TgimvY6QoQQvBlHmrJj4-25">
          <mxGeometry relative="1" as="geometry">
            <Array as="points">
              <mxPoint x="510" y="175" />
              <mxPoint x="510" y="460" />
              <mxPoint x="350" y="460" />
              <mxPoint x="350" y="459" />
            </Array>
          </mxGeometry>
        </mxCell>
        <mxCell id="TgimvY6QoQQvBlHmrJj4-33" value="END" style="strokeWidth=2;html=1;shape=mxgraph.flowchart.terminator;whiteSpace=wrap;" vertex="1" parent="WIyWlLk6GJQsqaUBKTNV-1">
          <mxGeometry x="265" y="500" width="60" height="40" as="geometry" />
        </mxCell>
        <mxCell id="TgimvY6QoQQvBlHmrJj4-34" style="edgeStyle=orthogonalEdgeStyle;rounded=0;orthogonalLoop=1;jettySize=auto;html=1;exitX=0.5;exitY=1;exitDx=0;exitDy=0;entryX=0.5;entryY=0;entryDx=0;entryDy=0;entryPerimeter=0;" edge="1" parent="WIyWlLk6GJQsqaUBKTNV-1" source="TgimvY6QoQQvBlHmrJj4-25" target="TgimvY6QoQQvBlHmrJj4-33">
          <mxGeometry relative="1" as="geometry" />
        </mxCell>
      </root>
    </mxGraphModel>
  </diagram>
</mxfile>
